<?xml version="1.0" encoding="utf-8"?>
<!-- Generator: Adobe Illustrator 28.0.0, SVG Export Plug-In . SVG Version: 6.00 Build 0)  -->
<svg version="1.1" id="Layer_1" xmlns="http://www.w3.org/2000/svg" xmlns:xlink="http://www.w3.org/1999/xlink" x="0px" y="0px"
	 viewBox="0 0 12 16" style="enable-background:new 0 0 12 16;" xml:space="preserve">
<style type="text/css">
	.st0{fill:#FFFFFF;}
</style>
<path class="st0" d="M1.5,0C0.7,0,0,0.7,0,1.5v13C0,15.3,0.7,16,1.5,16h3v-2.5C4.5,12.7,5.2,12,6,12s1.5,0.7,1.5,1.5V16h3
	c0.8,0,1.5-0.7,1.5-1.5v-13C12,0.7,11.3,0,10.5,0H1.5z M2,7.5C2,7.2,2.2,7,2.5,7h1C3.8,7,4,7.2,4,7.5v1C4,8.8,3.8,9,3.5,9h-1
	C2.2,9,2,8.8,2,8.5V7.5z M5.5,7h1C6.8,7,7,7.2,7,7.5v1C7,8.8,6.8,9,6.5,9h-1C5.2,9,5,8.8,5,8.5v-1C5,7.2,5.2,7,5.5,7z M8,7.5
	C8,7.2,8.2,7,8.5,7h1C9.8,7,10,7.2,10,7.5v1C10,8.8,9.8,9,9.5,9h-1C8.2,9,8,8.8,8,8.5V7.5z M2.5,3h1C3.8,3,4,3.2,4,3.5v1
	C4,4.8,3.8,5,3.5,5h-1C2.2,5,2,4.8,2,4.5v-1C2,3.2,2.2,3,2.5,3z M5,3.5C5,3.2,5.2,3,5.5,3h1C6.8,3,7,3.2,7,3.5v1C7,4.8,6.8,5,6.5,5
	h-1C5.2,5,5,4.8,5,4.5V3.5z M8.5,3h1C9.8,3,10,3.2,10,3.5v1C10,4.8,9.8,5,9.5,5h-1C8.2,5,8,4.8,8,4.5v-1C8,3.2,8.2,3,8.5,3z"/>
</svg>
