<?xml version="1.0" encoding="utf-8"?>
<!-- Generator: Adobe Illustrator 27.5.0, SVG Export Plug-In . SVG Version: 6.00 Build 0)  -->
<svg version="1.1" xmlns="http://www.w3.org/2000/svg" xmlns:xlink="http://www.w3.org/1999/xlink" x="0px" y="0px"
	 viewBox="0 0 500 500" style="enable-background:new 0 0 500 500;" xml:space="preserve">
<g id="BACKGROUND">
</g>
<g id="OBJECTS">
	<g>
		
			<linearGradient id="XMLID_00000034788067098208544770000014199929726634402490_" gradientUnits="userSpaceOnUse" x1="295.276" y1="223.669" x2="415.86" y2="223.669">
			<stop  offset="0" style="stop-color:#FFFFFF"/>
			<stop  offset="1" style="stop-color:#C9DEFF"/>
		</linearGradient>
		
			<path id="XMLID_1402_" style="fill-rule:evenodd;clip-rule:evenodd;fill:url(#XMLID_00000034788067098208544770000014199929726634402490_);" d="
			M403.939,312.644l-100.766-58.177c-4.887-2.821-7.897-8.035-7.897-13.678v-99.212c0-6.118,6.623-9.941,11.921-6.883
			l100.766,58.178c4.887,2.821,7.897,8.035,7.897,13.678v99.212C415.86,311.879,409.237,315.703,403.939,312.644z"/>
		
			<linearGradient id="XMLID_00000004518824994317377400000005747026549550636164_" gradientUnits="userSpaceOnUse" x1="1450.1245" y1="285.6768" x2="1570.7085" y2="285.6768" gradientTransform="matrix(-1 0 0 1 1654.8485 0)">
			<stop  offset="0" style="stop-color:#FFFFFF"/>
			<stop  offset="1" style="stop-color:#C9DEFF"/>
		</linearGradient>
		
			<path id="XMLID_5_" style="fill-rule:evenodd;clip-rule:evenodd;fill:url(#XMLID_00000004518824994317377400000005747026549550636164_);" d="
			M96.061,374.652l100.766-58.177c4.887-2.821,7.897-8.035,7.897-13.678v-99.212c0-6.118-6.623-9.941-11.921-6.882L92.037,254.879
			c-4.887,2.821-7.897,8.035-7.897,13.678v99.212C84.14,373.887,90.763,377.711,96.061,374.652z"/>
		
			<linearGradient id="XMLID_00000080204453181186231890000017638030886379371963_" gradientUnits="userSpaceOnUse" x1="1335.4576" y1="81.7077" x2="1387.77" y2="110.0435" gradientTransform="matrix(-1 0 0 1 1571.7657 0)">
			<stop  offset="0" style="stop-color:#FFFFFF"/>
			<stop  offset="1" style="stop-color:#C9DEFF"/>
		</linearGradient>
		
			<path id="XMLID_2_" style="fill-rule:evenodd;clip-rule:evenodd;fill:url(#XMLID_00000080204453181186231890000017638030886379371963_);" d="
			M154.631,169.487l69.887-40.35c3.389-1.957,5.477-5.573,5.477-9.487v-68.81c0-4.243-4.593-6.895-8.268-4.773l-69.887,40.35
			c-3.389,1.957-5.477,5.573-5.477,9.487v68.81C146.363,168.957,150.956,171.609,154.631,169.487z"/>
		<linearGradient id="SVGID_1_" gradientUnits="userSpaceOnUse" x1="396.4126" y1="406.5851" x2="148.0122" y2="406.5851">
			<stop  offset="0.0196" style="stop-color:#343B97"/>
			<stop  offset="0.5363" style="stop-color:#5457D4"/>
			<stop  offset="1" style="stop-color:#4DAFEB"/>
		</linearGradient>
		<path style="fill-rule:evenodd;clip-rule:evenodd;fill:url(#SVGID_1_);" d="M390.016,351.444h-9.233H117.671h-9.231v28.998h0.007
			c0.001,1.521,0.068,3.042,0.216,4.561c0.482,5.102,1.812,10.193,3.97,15.18c2.808,6.506,7.029,12.854,12.676,18.877
			c4.41,4.714,9.69,9.24,15.839,13.472c2.682,1.854,5.521,3.646,8.527,5.384c54.977,31.742,144.126,31.752,199.103,0
			c20.229-11.68,33.02-26.022,38.352-41.076c1.921-5.406,2.875-10.902,2.876-16.399h0.008V351.444z"/>
		
			<linearGradient id="SVGID_00000054256861613191120810000016856693539206894768_" gradientUnits="userSpaceOnUse" x1="411.5982" y1="290.1512" x2="70.0877" y2="425.2889">
			<stop  offset="0" style="stop-color:#6164FF"/>
			<stop  offset="1" style="stop-color:#8EE5FF"/>
		</linearGradient>
		<path style="fill-rule:evenodd;clip-rule:evenodd;fill:url(#SVGID_00000054256861613191120810000016856693539206894768_);" d="
			M387.131,370.802c-5.332,15.054-18.123,29.395-38.352,41.076c-54.977,31.752-144.126,31.742-199.103,0
			c-3.007-1.739-5.845-3.53-8.527-5.384c-6.149-4.232-11.429-8.758-15.839-13.472c-5.646-6.024-9.868-12.372-12.676-18.877
			c-2.158-4.986-3.488-10.078-3.97-15.18c-2.168-22.292,11.503-45.004,41.013-62.038c37.462-21.633,90.783-28.526,138.343-20.669
			c3.887,0.639,7.742,1.383,11.544,2.221c17.945,3.949,34.759,10.109,49.215,18.448c17.767,10.256,29.793,22.575,36.068,35.618
			C390.871,345.021,391.625,358.157,387.131,370.802z"/>
		
			<linearGradient id="SVGID_00000047058693086727240510000014374532181094915712_" gradientUnits="userSpaceOnUse" x1="285.0904" y1="289.3001" x2="249.1116" y2="354.6094">
			<stop  offset="0" style="stop-color:#6164FF"/>
			<stop  offset="1" style="stop-color:#8EE5FF"/>
		</linearGradient>
		<path style="fill-rule:evenodd;clip-rule:evenodd;fill:url(#SVGID_00000047058693086727240510000014374532181094915712_);" d="
			M355.222,366.31c-4.098,10.93-13.93,21.343-29.478,29.824c-42.256,23.055-110.777,23.047-153.033,0
			c-2.311-1.263-4.493-2.563-6.554-3.91c-4.726-3.073-8.785-6.359-12.174-9.782c-4.34-4.374-7.585-8.983-9.743-13.707
			c-1.659-3.621-2.681-7.317-3.052-11.022c-1.667-16.186,8.841-32.677,31.523-45.045c28.793-15.707,69.777-20.712,106.333-15.007
			c2.987,0.464,5.95,1.004,8.873,1.613c13.793,2.868,26.716,7.34,37.828,13.395c13.656,7.447,22.899,16.392,27.722,25.861
			C358.097,347.591,358.676,357.129,355.222,366.31z"/>
		
			<linearGradient id="SVGID_00000177486602237597947190000005347258426200521858_" gradientUnits="userSpaceOnUse" x1="244.3047" y1="314.8127" x2="263.9467" y2="472.7352">
			<stop  offset="0" style="stop-color:#6164FF"/>
			<stop  offset="1" style="stop-color:#8EE5FF"/>
		</linearGradient>
		<path style="fill-rule:evenodd;clip-rule:evenodd;fill:url(#SVGID_00000177486602237597947190000005347258426200521858_);" d="
			M357.126,358.854c-0.346,2.504-0.985,4.997-1.907,7.459c-4.096,10.926-13.922,21.339-29.479,29.825
			c-42.249,23.047-110.771,23.047-153.031,0c-2.305-1.268-4.494-2.567-6.558-3.918c-4.725-3.069-8.779-6.359-12.173-9.774
			c-4.337-4.379-7.584-8.988-9.742-13.713c-1.488-3.237-2.462-6.537-2.912-9.858c-0.052-0.388-0.094-0.775-0.136-1.163
			c-1.666-16.185,8.842-32.674,31.522-45.046c28.798-15.703,69.779-20.711,106.329-15.001c2.996,0.461,5.95,1.006,8.873,1.613
			c13.797,2.86,26.724,7.333,37.828,13.388c13.661,7.448,22.9,16.395,27.729,25.865
			C356.853,345.162,358.079,352.034,357.126,358.854z"/>
		
			<linearGradient id="SVGID_00000057856400164933744500000009495568165638881446_" gradientUnits="userSpaceOnUse" x1="283.1858" y1="297.2055" x2="249.1156" y2="359.0503">
			<stop  offset="0" style="stop-color:#6164FF"/>
			<stop  offset="1" style="stop-color:#8EE5FF"/>
		</linearGradient>
		<path style="fill-rule:evenodd;clip-rule:evenodd;fill:url(#SVGID_00000057856400164933744500000009495568165638881446_);" d="
			M357.126,358.854c-0.346,2.504-0.985,4.997-1.907,7.459c-4.096,10.926-13.922,21.339-29.479,29.825
			c-42.249,23.047-110.771,23.047-153.031,0c-2.305-1.268-4.494-2.567-6.558-3.918c-4.725-3.069-8.779-6.359-12.173-9.774
			c-4.337-4.379-7.584-8.988-9.742-13.713c-1.488-3.237-2.462-6.537-2.912-9.858c1.854-13.608,12.32-26.912,31.385-37.304
			c28.798-15.714,69.779-20.711,106.329-15.012c2.996,0.461,5.95,1.006,8.873,1.613c13.797,2.87,26.724,7.344,37.828,13.399
			c13.661,7.448,22.9,16.384,27.729,25.854C355.387,351.175,356.602,354.999,357.126,358.854z"/>
		
			<linearGradient id="SVGID_00000121255889934626527560000002220671880267371398_" gradientUnits="userSpaceOnUse" x1="147.6221" y1="396.3003" x2="194.5332" y2="349.3893">
			<stop  offset="0" style="stop-color:#5457D4;stop-opacity:0"/>
			<stop  offset="1" style="stop-color:#302C8B"/>
		</linearGradient>
		<path style="fill-rule:evenodd;clip-rule:evenodd;fill:url(#SVGID_00000121255889934626527560000002220671880267371398_);" d="
			M198.074,371.441l-56.926,35.052c-6.149-4.232-11.429-8.758-15.839-13.472l62.132-27.719L198.074,371.441z"/>
		
			<linearGradient id="SVGID_00000027590433920864956940000002337074374620732557_" gradientUnits="userSpaceOnUse" x1="122.0878" y1="369.3141" x2="167.2958" y2="324.1061">
			<stop  offset="0" style="stop-color:#5457D4;stop-opacity:0"/>
			<stop  offset="1" style="stop-color:#302C8B"/>
		</linearGradient>
		<path style="fill-rule:evenodd;clip-rule:evenodd;fill:url(#SVGID_00000027590433920864956940000002337074374620732557_);" d="
			M160.215,344.162l-3.52,14.32l-44.061,15.661c-2.158-4.986-3.488-10.078-3.97-15.18L160.215,344.162z"/>
		
			<linearGradient id="SVGID_00000050639148092099614170000001005799788298780858_" gradientUnits="userSpaceOnUse" x1="333.4465" y1="306.1617" x2="294.3218" y2="336.4726">
			<stop  offset="0" style="stop-color:#5457D4;stop-opacity:0"/>
			<stop  offset="1" style="stop-color:#302C8B"/>
		</linearGradient>
		<path style="fill-rule:evenodd;clip-rule:evenodd;fill:url(#SVGID_00000050639148092099614170000001005799788298780858_);" d="
			M384.847,332.544l-58.025,33.502L237.358,314.4l62.205-35.922c17.945,3.949,34.759,10.109,49.215,18.448
			C366.546,307.182,378.572,319.502,384.847,332.544z"/>
		<g>
			
				<linearGradient id="SVGID_00000080900557854133675390000004376575555200542392_" gradientUnits="userSpaceOnUse" x1="351.9196" y1="266.9217" x2="331.1792" y2="335.8957">
				<stop  offset="0" style="stop-color:#5457D4"/>
				<stop  offset="1" style="stop-color:#302C8B"/>
			</linearGradient>
			<path style="fill:url(#SVGID_00000080900557854133675390000004376575555200542392_);" d="M331.324,311.967
				c-4.538,11.554-6.377,24.538-9.848,36.55c-0.057,0.196,2.55-0.599,2.833-0.824c0.971-0.771,0.876-1.267,1.296-2.363
				c1.155-3.016,1.137-7.056,1.775-10.251c1.406-7.047,3.183-14.02,5.323-20.881c0.931-2.984,1.983-6.041,4.085-8.354
				c2.883-3.173,7.3-4.479,10.558-7.265c4.288-3.667,6.072-9.399,7.656-14.815c1.474-5.036,2.962-10.255,2.256-15.454
				c-0.857-3.855-2.887-7.592-3.563-11.425c-0.58-3.286-0.389-6.838-0.86-10.221c-0.123,0.106-0.248,0.208-0.372,0.313
				c-10.381,17.675-13.174,39.345-19.693,59.16C332.65,308.058,332.096,310,331.324,311.967z"/>
			
				<linearGradient id="SVGID_00000078752940356656587490000009984151461820901559_" gradientUnits="userSpaceOnUse" x1="341.5253" y1="255.6948" x2="329.3977" y2="296.0263">
				<stop  offset="0" style="stop-color:#5457D4"/>
				<stop  offset="1" style="stop-color:#302C8B"/>
			</linearGradient>
			<path style="fill:url(#SVGID_00000078752940356656587490000009984151461820901559_);" d="M335.157,261.288
				c-4.609,5.612-7.88,12.344-9.275,19.481c-0.618,3.164-1.343,7.566-0.349,10.729c1.075,3.418,3.949,5.4,5.725,8.347
				c1.247,2.071,1.646,4.168,1.512,6.293c6.518-19.815,9.311-41.486,19.693-59.16C346.667,251.902,340.045,255.336,335.157,261.288z
				"/>
			
				<linearGradient id="SVGID_00000013182742912157882290000010494880445360287635_" gradientUnits="userSpaceOnUse" x1="393.5384" y1="293.5873" x2="354.2891" y2="318.4117">
				<stop  offset="0" style="stop-color:#5457D4"/>
				<stop  offset="1" style="stop-color:#302C8B"/>
			</linearGradient>
			<path style="fill:url(#SVGID_00000013182742912157882290000010494880445360287635_);" d="M395.182,295.068
				c-9.061-2.522-18.458-4.228-27.785-3.213c-10.108,1.1-20.201,5.781-25.95,14.168c-2.961,4.32-4.639,9.369-6.28,14.342
				c-3.908,11.841-7.815,23.682-11.723,35.523l1.001,4.696c3.352-12.747,7.771-25.214,13.196-37.226
				c0.224-0.495,0.465-0.996,0.764-1.448C345.984,299.61,372.934,297.931,395.182,295.068z"/>
			
				<linearGradient id="SVGID_00000059298510967016720160000013299994286800961933_" gradientUnits="userSpaceOnUse" x1="371.6561" y1="296.4211" x2="363.1081" y2="324.848">
				<stop  offset="0" style="stop-color:#5457D4"/>
				<stop  offset="1" style="stop-color:#302C8B"/>
			</linearGradient>
			<path style="fill:url(#SVGID_00000059298510967016720160000013299994286800961933_);" d="M338.406,321.91
				c0.249-0.376,0.535-0.72,0.901-0.984c1.424-1.023,3.478-0.536,4.888,0.505c1.41,1.042,2.412,2.535,3.672,3.753
				c3.657,3.535,9.243,4.447,14.257,3.588c5.013-0.859,9.613-3.25,14.119-5.609c3.726-1.951,7.627-4.06,9.852-7.629
				c2.141-3.434,2.388-7.674,3.509-11.562c1.121-3.888,3.814-7.947,7.849-8.256c-0.754-0.222-1.512-0.437-2.271-0.648
				C372.934,297.931,345.984,299.61,338.406,321.91z"/>
			
				<linearGradient id="SVGID_00000057856160562092568480000015007547079664646068_" gradientUnits="userSpaceOnUse" x1="373.9356" y1="363.3804" x2="355.8206" y2="318.4283">
				<stop  offset="0" style="stop-color:#5457D4"/>
				<stop  offset="1" style="stop-color:#302C8B"/>
			</linearGradient>
			<path style="fill:url(#SVGID_00000057856160562092568480000015007547079664646068_);" d="M358.035,336.231
				c3.232,10.99,4.131,23.379,8.768,33.796c0.57-5.635,2.637-11.07,4.392-16.491c2.01-6.206,3.648-12.846,2.172-19.201
				c-0.999-4.304-3.817-8.469-7.766-10.572c-2.758-1.47-9.034-2.639-11.896-0.974c-1.477,0.859-2.617,2.242-4.161,2.973
				c-0.619,0.293-1.24,0.493-1.862,0.642C352.201,328.634,355.938,331.34,358.035,336.231z"/>
			
				<linearGradient id="SVGID_00000181051500985053859830000011786550271406482069_" gradientUnits="userSpaceOnUse" x1="368.662" y1="375.0587" x2="339.8535" y2="332.1078">
				<stop  offset="0" style="stop-color:#5457D4"/>
				<stop  offset="1" style="stop-color:#302C8B"/>
			</linearGradient>
			<path style="fill:url(#SVGID_00000181051500985053859830000011786550271406482069_);" d="M358.035,335
				c-2.096-4.891-5.833-7.597-10.352-9.827c-3.508,0.838-7.063-0.164-10.517,1.996c-3.592,2.247-7.122,5.2-7.669,9.681
				c-0.734,6.014,4.324,11.026,9.059,14.805c8.932,7.128,18.324,13.681,28.098,19.604c0.014-0.825,0.066-1.646,0.148-2.462
				C362.166,358.38,361.267,345.99,358.035,335z"/>
		</g>
		<g>
			
				<linearGradient id="SVGID_00000028287396324512576930000007635385010291913124_" gradientUnits="userSpaceOnUse" x1="362.2607" y1="349.2585" x2="253.8363" y2="32.3654">
				<stop  offset="0.0196" style="stop-color:#343B97"/>
				<stop  offset="0.6229" style="stop-color:#3C42A7"/>
				<stop  offset="0.729" style="stop-color:#45A7EF"/>
				<stop  offset="0.8128" style="stop-color:#4247B2"/>
				<stop  offset="1" style="stop-color:#5457D4"/>
			</linearGradient>
			<path style="fill:url(#SVGID_00000028287396324512576930000007635385010291913124_);" d="M332.169,118.664v235.153
				c0,6.138-2.071,10.437-5.343,12.221v0.009l-7.885,4.548c3.06-1.895,4.992-6.11,4.992-12.027V123.424
				c0-11.065-6.73-23.915-15.022-28.703L222.496,44.83c-3.43-1.978-6.591-2.274-9.124-1.146l6.896-3.984
				c2.709-1.941,6.397-1.978,10.474,0.37l86.405,49.891C325.448,94.749,332.169,107.608,332.169,118.664z"/>
			
				<linearGradient id="SVGID_00000098940810432288478250000012994298185664861865_" gradientUnits="userSpaceOnUse" x1="265.4562" y1="374.8647" x2="265.9798" y2="18.1635">
				<stop  offset="0.0196" style="stop-color:#343B97"/>
				<stop  offset="0.5363" style="stop-color:#5457D4"/>
				<stop  offset="1" style="stop-color:#4DAFEB"/>
			</linearGradient>
			<path style="fill:url(#SVGID_00000098940810432288478250000012994298185664861865_);" d="M323.932,123.422v235.15
				c0,5.908-1.928,10.13-4.987,12.026c-0.115,0.073-0.241,0.136-0.356,0.199c-2.619,1.446-5.992,1.257-9.68-0.869l-5.091-2.944
				l-81.324-46.942c-8.286-4.788-15.022-17.641-15.022-28.704V56.188c0-6.474,2.315-10.916,5.898-12.508
				c2.535-1.121,5.699-0.828,9.124,1.152l86.415,49.886C317.206,99.506,323.932,112.36,323.932,123.422z"/>
			<g>
				<g>
					
						<linearGradient id="SVGID_00000047776321295872163250000007539189361256810388_" gradientUnits="userSpaceOnUse" x1="230.7522" y1="320.8478" x2="297.5353" y2="105.9628">
						<stop  offset="0" style="stop-color:#45ABE2"/>
						<stop  offset="1" style="stop-color:#433EBD"/>
					</linearGradient>
					<path style="fill:url(#SVGID_00000047776321295872163250000007539189361256810388_);" d="M320.25,123.541v229.378
						c0,4.044-2.849,5.667-6.369,3.635l-95.477-55.124c-3.52-2.032-6.38-6.945-6.38-10.989V61.053c0-4.033,2.86-5.667,6.38-3.625
						L255.07,78.59c2.514,1.456,4.965,4.012,6.589,7.155c1.069,2.074,2.682,3.939,4.484,4.976c1.802,1.048,3.405,1.037,4.484,0.199
						c1.613-1.268,4.075-0.995,6.589,0.461l36.665,21.161C317.401,114.584,320.25,119.498,320.25,123.541z"/>
				</g>
				<path style="fill:#5256D9;" d="M262.77,80.903c0-1.859,1.313-2.608,2.933-1.672c1.62,0.935,2.933,3.2,2.933,5.059
					c0,1.859-1.313,2.608-2.933,1.672C264.083,85.027,262.77,82.762,262.77,80.903z"/>
				<path style="fill:#312490;" d="M264.346,81.813c0-0.86,0.608-1.206,1.357-0.774c0.75,0.433,1.357,1.481,1.357,2.341
					s-0.608,1.207-1.357,0.774C264.954,83.721,264.346,82.673,264.346,81.813z"/>
			</g>
			<g>
				<g>
					
						<linearGradient id="SVGID_00000173856070302834451110000007452057068216384141_" gradientUnits="userSpaceOnUse" x1="168.4176" y1="34.0199" x2="310.8885" y2="173.3478">
						<stop  offset="0" style="stop-color:#6164FF"/>
						<stop  offset="1" style="stop-color:#8EE5FF"/>
					</linearGradient>
					<path style="fill:url(#SVGID_00000173856070302834451110000007452057068216384141_);" d="M311.352,173.433l-91.3-52.712
						c-2.15-1.241-3.893-4.571-3.893-7.437V87.826c0-2.866,1.743-4.184,3.893-2.943l91.3,52.712c2.15,1.241,3.892,4.571,3.892,7.437
						v25.458C315.244,173.357,313.502,174.674,311.352,173.433z"/>
					
						<text transform="matrix(0.8715 0.5031 0 1 221.4811 106.6004)" style="fill:#FFFFFF; font-family:'OpenSans'; font-size:7.7987px;">09.00</text>
					<g>
						
							<text transform="matrix(0.8715 0.5031 0 1 221.4811 113.5106)" style="fill:#FFFFFF; font-family:'OpenSans'; font-size:5.1708px;">AM</text>
					</g>
					
						<text transform="matrix(0.8715 0.5031 0 1 221.4811 97.2)" style="fill:#FFFFFF; font-family:'OpenSans'; font-size:5.1708px;">Monday</text>
					<path style="fill:#FFFFFF;" d="M309.288,155.346c-0.107-0.267-0.241-0.545-0.39-0.846l-0.002-0.004
						c-0.162-0.32-0.326-0.82-0.483-1.386c-0.24-0.854-0.471-1.852-0.861-2.814c-0.196-0.481-0.438-0.961-0.758-1.4
						c-0.319-0.439-0.719-0.825-1.166-1.081c-0.602-0.353-1.109-0.363-1.469-0.16c-0.543,0.303-0.827,0.984-1.083,1.619
						c-0.247,0.64-0.476,1.247-0.724,1.443l-0.002,0.001c-0.149,0.129-0.282,0.253-0.389,0.396
						c-0.104,0.146-0.196,0.306-0.199,0.587c-0.008,0.25,0.117,0.606,0.293,0.861c0.263,0.388,0.575,0.659,1.017,0.996
						c0.371,0.278,0.845,0.589,1.437,0.95c0.171,0.617,0.605,1.237,1.119,1.534c0.511,0.295,0.943,0.173,1.112-0.248
						c0.823,0.448,1.416,0.729,1.839,0.853c0.242,0.068,0.441,0.097,0.615,0.037c0.176-0.052,0.301-0.263,0.294-0.522
						C309.485,155.879,309.392,155.611,309.288,155.346z M308.073,155.456c-0.3-0.12-0.717-0.324-1.253-0.613v-0.005l-0.445-0.238
						l0,0l-0.006-0.003c-0.223-0.119-0.471-0.263-0.741-0.418c-0.278-0.16-0.526-0.304-0.749-0.442l-0.005-0.003l0,0l-0.444-0.275
						v0.003c-0.737-0.454-1.255-0.815-1.546-1.069c-0.128-0.109-0.196-0.185-0.235-0.233c0.014-0.031,0.036-0.073,0.074-0.12
						c0.069-0.089,0.177-0.193,0.309-0.306l-0.002,0.001c0.273-0.235,0.448-0.614,0.617-1.021c0.249-0.611,0.477-1.297,0.789-1.696
						c0.155-0.201,0.326-0.327,0.513-0.366c0.189-0.037,0.393-0.003,0.68,0.161c0.375,0.222,0.614,0.498,0.853,0.896
						c0.354,0.594,0.631,1.478,0.874,2.382c0.252,0.91,0.461,1.82,0.865,2.641l-0.002-0.004c0.141,0.285,0.256,0.527,0.324,0.699
						l0.062,0.176C308.528,155.601,308.352,155.572,308.073,155.456z"/>
					
						<text transform="matrix(0.8715 0.5031 0 1 249.4258 122.7332)" style="fill:#FFFFFF; font-family:'OpenSans-Semibold'; font-size:8.2311px;">Meeting</text>
					<polyline style="fill:#FFFFFF;" points="243.415,104.396 243.415,128.827 243.915,128.827 243.915,104.396 					"/>
				</g>
				<g>
					
						<linearGradient id="SVGID_00000087394776947799720970000014618777763540263311_" gradientUnits="userSpaceOnUse" x1="128.0957" y1="75.2512" x2="270.5667" y2="214.5791">
						<stop  offset="0" style="stop-color:#6164FF"/>
						<stop  offset="1" style="stop-color:#8EE5FF"/>
					</linearGradient>
					<path style="fill:url(#SVGID_00000087394776947799720970000014618777763540263311_);" d="M311.352,254.097l-91.3-52.712
						c-2.15-1.241-3.893-4.571-3.893-7.437V168.49c0-2.866,1.743-4.184,3.893-2.943l91.3,52.712c2.15,1.241,3.892,4.571,3.892,7.437
						v25.458C315.244,254.02,313.502,255.338,311.352,254.097z"/>
					
						<text transform="matrix(0.8715 0.5031 0 1 221.4811 187.2645)" style="fill:#FFFFFF; font-family:'OpenSans'; font-size:7.7987px;">11.00</text>
					<g>
						
							<text transform="matrix(0.8715 0.5031 0 1 221.4811 194.1746)" style="fill:#FFFFFF; font-family:'OpenSans'; font-size:5.1708px;">AM</text>
					</g>
					
						<text transform="matrix(0.8715 0.5031 0 1 221.4811 177.8641)" style="fill:#FFFFFF; font-family:'OpenSans'; font-size:5.1708px;">Monday</text>
					<path style="fill:#FFFFFF;" d="M309.288,236.009c-0.107-0.267-0.241-0.545-0.39-0.846l-0.002-0.004
						c-0.162-0.32-0.326-0.82-0.483-1.386c-0.24-0.854-0.471-1.852-0.861-2.814c-0.196-0.481-0.438-0.961-0.758-1.4
						c-0.319-0.439-0.719-0.825-1.166-1.081c-0.602-0.353-1.109-0.363-1.469-0.16c-0.543,0.303-0.827,0.984-1.083,1.619
						c-0.247,0.64-0.476,1.247-0.724,1.443l-0.002,0.001c-0.149,0.129-0.282,0.253-0.389,0.396
						c-0.104,0.146-0.196,0.307-0.199,0.587c-0.008,0.25,0.117,0.606,0.293,0.861c0.263,0.388,0.575,0.659,1.017,0.996
						c0.371,0.278,0.845,0.589,1.437,0.95c0.171,0.617,0.605,1.237,1.119,1.534c0.511,0.295,0.943,0.173,1.112-0.248
						c0.823,0.448,1.416,0.729,1.839,0.853c0.242,0.068,0.441,0.097,0.615,0.037c0.176-0.051,0.301-0.262,0.294-0.521
						C309.485,236.542,309.392,236.275,309.288,236.009z M308.073,236.119c-0.3-0.12-0.717-0.324-1.253-0.613v-0.005l-0.445-0.238
						l0,0l-0.006-0.003c-0.223-0.119-0.471-0.263-0.741-0.418c-0.278-0.16-0.526-0.304-0.749-0.442l-0.005-0.003l0,0l-0.444-0.275
						v0.004c-0.737-0.454-1.255-0.815-1.546-1.069c-0.128-0.109-0.196-0.185-0.235-0.233c0.014-0.031,0.036-0.073,0.074-0.12
						c0.069-0.089,0.177-0.193,0.309-0.306l-0.002,0.001c0.273-0.235,0.448-0.615,0.617-1.021c0.249-0.611,0.477-1.297,0.789-1.695
						c0.155-0.201,0.326-0.327,0.513-0.366c0.189-0.037,0.393-0.003,0.68,0.161c0.375,0.222,0.614,0.498,0.853,0.896
						c0.354,0.594,0.631,1.478,0.874,2.382c0.252,0.91,0.461,1.82,0.865,2.641l-0.002-0.004c0.141,0.285,0.256,0.527,0.324,0.699
						l0.062,0.176C308.528,236.264,308.352,236.236,308.073,236.119z"/>
					
						<text transform="matrix(0.8715 0.5031 0 1 249.4258 203.3973)" style="fill:#FFFFFF; font-family:'OpenSans-Semibold'; font-size:8.2311px;">Inspect</text>
					<polyline style="fill:#FFFFFF;" points="243.415,185.059 243.415,209.49 243.915,209.49 243.915,185.059 					"/>
				</g>
				<g>
					
						<linearGradient id="SVGID_00000168075303393535813670000013046420758029822370_" gradientUnits="userSpaceOnUse" x1="107.9349" y1="95.8669" x2="250.4057" y2="235.1948">
						<stop  offset="0" style="stop-color:#6164FF"/>
						<stop  offset="1" style="stop-color:#8EE5FF"/>
					</linearGradient>
					<path style="fill:url(#SVGID_00000168075303393535813670000013046420758029822370_);" d="M311.352,294.428l-91.3-52.712
						c-2.15-1.241-3.893-4.571-3.893-7.437v-25.458c0-2.866,1.743-4.184,3.893-2.943l91.3,52.712
						c2.15,1.241,3.892,4.571,3.892,7.437v25.458C315.244,294.352,313.502,295.67,311.352,294.428z"/>
					
						<text transform="matrix(0.8715 0.5031 0 1 221.4811 227.596)" style="fill:#FFFFFF; font-family:'OpenSans'; font-size:7.7987px;">12.00</text>
					<g>
						
							<text transform="matrix(0.8715 0.5031 0 1 221.4811 234.5062)" style="fill:#FFFFFF; font-family:'OpenSans'; font-size:5.1708px;">AM</text>
					</g>
					
						<text transform="matrix(0.8715 0.5031 0 1 221.4811 218.1956)" style="fill:#FFFFFF; font-family:'OpenSans'; font-size:5.1708px;">Monday</text>
					<path style="fill:#FFFFFF;" d="M309.288,276.341c-0.107-0.267-0.241-0.545-0.39-0.846l-0.002-0.004
						c-0.162-0.32-0.326-0.82-0.483-1.386c-0.24-0.854-0.471-1.852-0.861-2.814c-0.196-0.481-0.438-0.961-0.758-1.4
						c-0.319-0.439-0.719-0.825-1.166-1.081c-0.602-0.353-1.109-0.363-1.469-0.16c-0.543,0.303-0.827,0.984-1.083,1.619
						c-0.247,0.64-0.476,1.247-0.724,1.443l-0.002,0.001c-0.149,0.129-0.282,0.253-0.389,0.396
						c-0.104,0.146-0.196,0.306-0.199,0.587c-0.008,0.25,0.117,0.606,0.293,0.861c0.263,0.388,0.575,0.659,1.017,0.996
						c0.371,0.278,0.845,0.589,1.437,0.95c0.171,0.616,0.605,1.236,1.119,1.534c0.511,0.295,0.943,0.173,1.112-0.248
						c0.823,0.448,1.416,0.729,1.839,0.853c0.242,0.068,0.441,0.097,0.615,0.037c0.176-0.051,0.301-0.262,0.294-0.522
						C309.485,276.874,309.392,276.607,309.288,276.341z M308.073,276.451c-0.3-0.12-0.717-0.324-1.253-0.612v-0.005l-0.445-0.238
						l0,0l-0.006-0.003c-0.223-0.12-0.471-0.263-0.741-0.418c-0.278-0.16-0.526-0.304-0.749-0.442l-0.005-0.003l0,0l-0.444-0.275
						v0.004c-0.737-0.454-1.255-0.815-1.546-1.069c-0.128-0.109-0.196-0.185-0.235-0.233c0.014-0.031,0.036-0.073,0.074-0.12
						c0.069-0.089,0.177-0.193,0.309-0.306l-0.002,0.002c0.273-0.235,0.448-0.614,0.617-1.021c0.249-0.611,0.477-1.297,0.789-1.695
						c0.155-0.201,0.326-0.327,0.513-0.366c0.189-0.037,0.393-0.003,0.68,0.161c0.375,0.222,0.614,0.497,0.853,0.896
						c0.354,0.594,0.631,1.478,0.874,2.382c0.252,0.91,0.461,1.82,0.865,2.641l-0.002-0.004c0.141,0.285,0.256,0.527,0.324,0.699
						l0.062,0.176C308.528,276.596,308.352,276.568,308.073,276.451z"/>
					
						<text transform="matrix(0.8715 0.5031 0 1 249.4258 243.7288)" style="fill:#FFFFFF; font-family:'OpenSans-Semibold'; font-size:8.2311px;">Lunch</text>
					<polyline style="fill:#FFFFFF;" points="243.415,225.391 243.415,249.823 243.915,249.823 243.915,225.391 					"/>
				</g>
				<g>
					
						<linearGradient id="SVGID_00000096047060410103208750000006502441099526785968_" gradientUnits="userSpaceOnUse" x1="87.7734" y1="116.4821" x2="230.2443" y2="255.81">
						<stop  offset="0" style="stop-color:#6164FF"/>
						<stop  offset="1" style="stop-color:#8EE5FF"/>
					</linearGradient>
					<path style="fill:url(#SVGID_00000096047060410103208750000006502441099526785968_);" d="M311.352,334.76l-91.3-52.712
						c-2.15-1.241-3.893-4.571-3.893-7.437v-25.458c0-2.866,1.743-4.184,3.893-2.943l91.3,52.712
						c2.15,1.241,3.892,4.571,3.892,7.437v25.458C315.244,334.684,313.502,336.001,311.352,334.76z"/>
					
						<text transform="matrix(0.8715 0.5031 0 1 221.4811 267.928)" style="fill:#FFFFFF; font-family:'OpenSans'; font-size:7.7987px;">1.00</text>
					<g>
						
							<text transform="matrix(0.8715 0.5031 0 1 221.4811 274.8382)" style="fill:#FFFFFF; font-family:'OpenSans'; font-size:5.1708px;">PM</text>
					</g>
					
						<text transform="matrix(0.8715 0.5031 0 1 221.4811 258.5276)" style="fill:#FFFFFF; font-family:'OpenSans'; font-size:5.1708px;">Monday</text>
					<path style="fill:#FFFFFF;" d="M309.288,316.673c-0.107-0.267-0.241-0.545-0.39-0.846l-0.002-0.004
						c-0.162-0.32-0.326-0.82-0.483-1.386c-0.24-0.854-0.471-1.852-0.861-2.814c-0.196-0.481-0.438-0.961-0.758-1.4
						c-0.319-0.439-0.719-0.825-1.166-1.081c-0.602-0.353-1.109-0.363-1.469-0.16c-0.543,0.303-0.827,0.984-1.083,1.619
						c-0.247,0.64-0.476,1.247-0.724,1.443l-0.002,0.001c-0.149,0.129-0.282,0.253-0.389,0.396
						c-0.104,0.146-0.196,0.306-0.199,0.587c-0.008,0.25,0.117,0.606,0.293,0.861c0.263,0.388,0.575,0.659,1.017,0.996
						c0.371,0.278,0.845,0.589,1.437,0.95c0.171,0.617,0.605,1.237,1.119,1.534c0.511,0.295,0.943,0.173,1.112-0.247
						c0.823,0.448,1.416,0.729,1.839,0.853c0.242,0.068,0.441,0.097,0.615,0.037c0.176-0.051,0.301-0.263,0.294-0.522
						C309.485,317.206,309.392,316.939,309.288,316.673z M308.073,316.783c-0.3-0.12-0.717-0.324-1.253-0.613v-0.005l-0.445-0.238h0
						l-0.006-0.003c-0.223-0.119-0.471-0.263-0.741-0.418c-0.278-0.16-0.526-0.304-0.749-0.442l-0.005-0.003l0,0l-0.444-0.275v0.004
						c-0.737-0.454-1.255-0.815-1.546-1.069c-0.128-0.109-0.196-0.185-0.235-0.233c0.014-0.031,0.036-0.073,0.074-0.12
						c0.069-0.089,0.177-0.193,0.309-0.306l-0.002,0.001c0.273-0.235,0.448-0.614,0.617-1.021c0.249-0.611,0.477-1.297,0.789-1.695
						c0.155-0.201,0.326-0.327,0.513-0.366c0.189-0.037,0.393-0.003,0.68,0.161c0.375,0.222,0.614,0.498,0.853,0.896
						c0.354,0.594,0.631,1.478,0.874,2.382c0.252,0.91,0.461,1.82,0.865,2.641l-0.002-0.004c0.141,0.285,0.256,0.527,0.324,0.699
						l0.062,0.176C308.528,316.928,308.352,316.9,308.073,316.783z"/>
					<g>
						
							<text transform="matrix(0.8715 0.5031 0 1 249.4258 284.0609)" style="fill:#FFFFFF; font-family:'OpenSans-Semibold'; font-size:8.2311px;">Research</text>
					</g>
					<g>
						<polyline style="fill:#FFFFFF;" points="243.415,265.723 243.415,290.155 243.915,290.155 243.915,265.723 						"/>
					</g>
				</g>
			</g>
			<g>
				
					<linearGradient id="SVGID_00000176732489059345270620000004514405779922717093_" gradientUnits="userSpaceOnUse" x1="263.7724" y1="138.8491" x2="246.8801" y2="195.0256">
					<stop  offset="0" style="stop-color:#FFFFFF"/>
					<stop  offset="1" style="stop-color:#C9DEFF"/>
				</linearGradient>
				<path style="fill:url(#SVGID_00000176732489059345270620000004514405779922717093_);" d="M323.371,230.533l-134.973-77.926
					c-3.178-1.835-5.754-6.758-5.754-10.995v-37.635c0-4.237,2.576-6.185,5.754-4.35l134.973,77.926
					c3.178,1.835,5.754,6.757,5.754,10.995v37.635C329.125,230.421,326.549,232.368,323.371,230.533z"/>
				
					<text transform="matrix(0.8715 0.5031 0 1 190.4901 131.7313)" style="fill:#454FA6; font-family:'OpenSans'; font-size:11.5291px;">10.00</text>
				<g>
					
						<text transform="matrix(0.8715 0.5031 0 1 190.4901 141.9481)" style="fill:#454FA6; font-family:'OpenSans'; font-size:7.6442px;">AM</text>
				</g>
				
					<text transform="matrix(0.8715 0.5031 0 1 190.4901 117.8343)" style="fill:#454FA6; font-family:'OpenSans'; font-size:7.6442px;">Monday</text>
				<path style="fill:#454FA6;" d="M320.32,203.794c-0.158-0.395-0.356-0.805-0.576-1.251l-0.003-0.006
					c-0.24-0.473-0.482-1.212-0.714-2.049c-0.355-1.262-0.696-2.738-1.272-4.159c-0.29-0.711-0.647-1.42-1.121-2.07
					c-0.471-0.649-1.063-1.219-1.724-1.598c-0.889-0.521-1.64-0.537-2.172-0.237c-0.803,0.448-1.222,1.454-1.601,2.394
					c-0.366,0.947-0.704,1.843-1.071,2.134l-0.003,0.002c-0.22,0.191-0.417,0.374-0.575,0.586c-0.153,0.215-0.289,0.453-0.295,0.868
					c-0.011,0.37,0.174,0.896,0.434,1.273c0.388,0.573,0.85,0.975,1.504,1.472c0.549,0.411,1.249,0.871,2.124,1.405
					c0.253,0.911,0.895,1.828,1.655,2.268c0.755,0.436,1.394,0.256,1.644-0.366c1.217,0.662,2.093,1.078,2.719,1.261
					c0.358,0.101,0.652,0.143,0.91,0.055c0.26-0.076,0.445-0.388,0.434-0.771C320.611,204.582,320.474,204.187,320.32,203.794z
					 M318.524,203.956c-0.443-0.177-1.06-0.479-1.853-0.906v-0.008l-0.657-0.352l0,0l-0.009-0.005
					c-0.33-0.177-0.697-0.389-1.095-0.618c-0.41-0.237-0.778-0.449-1.107-0.653l-0.008-0.005l-0.001,0l-0.657-0.406v0.005
					c-1.089-0.672-1.855-1.204-2.286-1.58c-0.189-0.162-0.29-0.273-0.348-0.345c0.02-0.047,0.053-0.108,0.11-0.178
					c0.102-0.131,0.262-0.285,0.457-0.453l-0.003,0.002c0.403-0.348,0.662-0.908,0.913-1.509c0.368-0.904,0.705-1.917,1.166-2.507
					c0.229-0.296,0.481-0.484,0.759-0.541c0.28-0.055,0.581-0.004,1.005,0.238c0.555,0.328,0.908,0.736,1.26,1.324
					c0.524,0.879,0.933,2.185,1.292,3.522c0.372,1.346,0.681,2.69,1.278,3.904l-0.003-0.006c0.209,0.421,0.378,0.78,0.479,1.034
					l0.091,0.26C319.197,204.171,318.937,204.129,318.524,203.956z"/>
				
					<text transform="matrix(0.8715 0.5031 0 1 231.8024 155.5816)" style="fill:#454FA6; font-family:'OpenSans-Semibold'; font-size:12.1684px;">Conference</text>
				<polyline style="fill:#454FA6;" points="223.057,128.473 223.057,164.59 223.557,164.59 223.557,128.473 				"/>
			</g>
			<g id="XMLID_4_">
				
					<linearGradient id="SVGID_00000027566019510166144270000013755712403523206786_" gradientUnits="userSpaceOnUse" x1="168.4414" y1="233.7231" x2="153.3169" y2="234.3123">
					<stop  offset="0" style="stop-color:#45ABE2"/>
					<stop  offset="0.4553" style="stop-color:#5457D4"/>
					<stop  offset="1" style="stop-color:#302C8B"/>
				</linearGradient>
				<path style="fill-rule:evenodd;clip-rule:evenodd;fill:url(#SVGID_00000027566019510166144270000013755712403523206786_);" d="
					M146.001,208.85c1.396,10.829-1.271,22.488,3.473,32.322c3.308,6.857,9.791,11.747,13.265,18.522
					c2.846-2.486,6.23-4.352,9.851-5.433c-9.493-9.973-14.818-23.796-14.47-37.56L146.001,208.85z"/>
				
					<linearGradient id="SVGID_00000016786752481255965210000004057855102287273345_" gradientUnits="userSpaceOnUse" x1="214.8033" y1="174.5149" x2="225.7182" y2="174.5149">
					<stop  offset="0" style="stop-color:#F59F7C"/>
					<stop  offset="1" style="stop-color:#F5D3AC"/>
				</linearGradient>
				<path style="fill:url(#SVGID_00000016786752481255965210000004057855102287273345_);" d="M214.803,184.587
					c0,0,0.959-3.028,1.506-4.321c0.547-1.293,0.182-4.826,1.46-7.804c1.277-2.978,4.505-6.621,5.109-9.355
					c0.365-1.652,1.612-0.232,1.095,2.043c-0.517,2.275-2.307,5.977-2.307,5.977s1.094,1.029,2.43,1.335
					c1.336,0.307,0.971,1.312,1.519,3.273c0.547,1.961-1.277,4.531-1.277,4.531c-1.095,0.167-5.207,6.375-5.207,6.375
					L214.803,184.587z"/>
				<g id="XMLID_23225_">
					<g>
						
							<linearGradient id="SVGID_00000005961643312881612520000003161015326595204537_" gradientUnits="userSpaceOnUse" x1="166.6959" y1="194.087" x2="175.1421" y2="198.7029">
							<stop  offset="0" style="stop-color:#F59F7C"/>
							<stop  offset="1" style="stop-color:#F5D3AC"/>
						</linearGradient>
						
							<path style="fill-rule:evenodd;clip-rule:evenodd;fill:url(#SVGID_00000005961643312881612520000003161015326595204537_);" d="
							M173.292,191.729c0.474,0.189,0.825,0.384,0.825,0.552c-0.955,0.92-2.384,1.877-3.101,2.988
							c-0.204,0.316-1.135,3.191-1.045,3.198c-3.784-0.281-7.522-1.167-11.03-2.612c0.515-1.462,0.821-2.997,0.912-4.544
							c0.079-1.351-0.33-2.798-0.051-4.093c0.056,0.019,0.112,0.038,0.168,0.057c2.23,0.757,4.461,1.513,6.691,2.27
							c1.389,0.471,2.777,0.942,4.166,1.413C171.091,191.047,172.406,191.377,173.292,191.729z"/>
						
							<linearGradient id="XMLID_00000039135902470963060330000013398429301208841604_" gradientUnits="userSpaceOnUse" x1="153.0634" y1="179.6407" x2="179.3963" y2="179.6407">
							<stop  offset="0" style="stop-color:#F59F7C"/>
							<stop  offset="1" style="stop-color:#F5D3AC"/>
						</linearGradient>
						
							<path id="XMLID_23070_" style="fill-rule:evenodd;clip-rule:evenodd;fill:url(#XMLID_00000039135902470963060330000013398429301208841604_);" d="
							M174.665,170.267c1.77,2.155,1.762,5.138,2.202,7.761c0.198,1.181,0.389,2.363,0.911,3.416
							c0.496,1.001,1.938,1.713,1.554,3.037c-0.135,0.465-0.503,0.818-0.799,1.202c-1.824,2.361-1.127,5.911-4.47,7.087
							c-1.803,0.634-3.972,0.035-5.194-1.434c-2.47,0.973-5.16,0.912-7.399-0.565c-2.781-1.834-5.05-4.418-6.564-7.382
							c-0.775-1.517-1.29-3.1-1.687-4.751c-0.396-1.648,0.02-3.536,0.604-5.118C156.786,165.501,169.267,163.696,174.665,170.267z"
							/>
						
							<linearGradient id="SVGID_00000083074592439213522750000007746163414016389515_" gradientUnits="userSpaceOnUse" x1="179.9299" y1="151.9386" x2="160.3008" y2="180.7279">
							<stop  offset="0" style="stop-color:#45ABE2"/>
							<stop  offset="0.4553" style="stop-color:#5457D4"/>
							<stop  offset="1" style="stop-color:#302C8B"/>
						</linearGradient>
						
							<path style="fill-rule:evenodd;clip-rule:evenodd;fill:url(#SVGID_00000083074592439213522750000007746163414016389515_);" d="
							M173.725,173.029c-0.063,0.534,0.084,1.069,0.136,1.613c0.168,1.791-1.781,2.577-1.938,4.358
							c-0.105,1.121,1.938,5.688,0,6.024c-0.241-0.995-0.346-2.294-1.739-2.326c-1.467-0.042-1.634,1.645-1.404,2.734
							c0.283,1.309,1.488,2.514,1.446,3.824c-0.01,0.262-0.073,0.524-0.199,0.786c-0.744,1.603-2.315,2.619-4.075,2.734
							c-1.76,0.126-3.488-0.545-5.028-1.435c-3.027-1.749-5.552-4.368-7.186-7.469c-1.037-1.99-2.734-3.991-3.3-6.181
							c-0.65-2.535,1.184-3.635,1.655-5.489c0.052-0.22,0.084-0.44,0.094-0.681c0.032-0.702,0.042-1.372,0.22-2.064
							c0.126-0.503,0.304-0.995,0.524-1.456c0.377-0.786,0.89-1.508,1.508-2.116c1.875-1.812,4.138-2.839,6.684-3.488
							c3.373-0.869,7.228-0.869,10.35,0.849c2.525,1.383,4.515,4.609,3.216,7.553C174.354,171.541,173.82,172.222,173.725,173.029z"
							/>
						<path style="fill-rule:evenodd;clip-rule:evenodd;fill:#00378D;" d="M176.115,178.861c0.263,0.832-0.605,1.335-0.901,0.453
							C174.996,178.663,175.857,178.044,176.115,178.861z"/>
					</g>
					
						<linearGradient id="XMLID_00000138553044363180425140000001438554886858838175_" gradientUnits="userSpaceOnUse" x1="212.0004" y1="356.3783" x2="190.7869" y2="369.0802">
						<stop  offset="0" style="stop-color:#5457D4"/>
						<stop  offset="1" style="stop-color:#302C8B"/>
					</linearGradient>
					
						<path id="XMLID_38_" style="fill-rule:evenodd;clip-rule:evenodd;fill:url(#XMLID_00000138553044363180425140000001438554886858838175_);" d="
						M175.091,371.652c0,0,0,1.371,0,1.371c1.878,1.193,5.005,1.344,6.905,0.31c5.667-3.081,12.159,1.502,17.481-2.718
						c0.958-0.76,2.675-2.739,2.47-4.84C195.21,367.452,175.091,371.652,175.091,371.652z"/>
					
						<linearGradient id="XMLID_00000140703286401687871740000000098364355780399748_" gradientUnits="userSpaceOnUse" x1="210.8058" y1="359.248" x2="180.9499" y2="368.1524">
						<stop  offset="0" style="stop-color:#5457D4"/>
						<stop  offset="1" style="stop-color:#302C8B"/>
					</linearGradient>
					
						<path id="XMLID_39_" style="fill-rule:evenodd;clip-rule:evenodd;fill:url(#XMLID_00000140703286401687871740000000098364355780399748_);" d="
						M184.759,361.03c0,0,6.184,1.889,9.843,2.456c2.035,0.315,5.314-1.202,6.814,0.928c1.872,2.659-1.87,5.932-3.942,6.721
						c-3.222,1.228-9.841-0.189-12.28,0.378c-2.439,0.567-8.622,1.791-10.103,0.14c-1.481-1.651,0-9.678,0-9.678L184.759,361.03z"/>
					
						<linearGradient id="XMLID_00000004507808136103369210000013026674179742318767_" gradientUnits="userSpaceOnUse" x1="168.3455" y1="344.1726" x2="153.4175" y2="353.2079">
						<stop  offset="0" style="stop-color:#5457D4"/>
						<stop  offset="1" style="stop-color:#302C8B"/>
					</linearGradient>
					
						<path id="XMLID_23066_" style="fill-rule:evenodd;clip-rule:evenodd;fill:url(#XMLID_00000004507808136103369210000013026674179742318767_);" d="
						M157.108,358.038c-3.436,3.308-6.095-0.865-5.875-4.476c0.104-1.712,0.247-3.539,1.221-4.892
						c1.055-1.465,3.019-2.292,3.321-4.122c2.49-0.788,16.204-6.886,15.212,0.539c-0.523,3.918-6.277,5.631-10.233,9.44
						C160.755,354.527,157.109,358.037,157.108,358.038z"/>
					
						<linearGradient id="XMLID_00000070840102240056144350000011571782950839648646_" gradientUnits="userSpaceOnUse" x1="175.8982" y1="344.9649" x2="156.5607" y2="354.6986">
						<stop  offset="0" style="stop-color:#5457D4"/>
						<stop  offset="1" style="stop-color:#302C8B"/>
					</linearGradient>
					
						<path id="XMLID_23065_" style="fill-rule:evenodd;clip-rule:evenodd;fill:url(#XMLID_00000070840102240056144350000011571782950839648646_);" d="
						M156.916,356.885l3.647-3.511c3.956-3.809,9.71-5.522,10.233-9.44l0-0.001l0-0.001l0-0.002v-0.001l0.002-0.02l0-0.001l0-0.001
						l0-0.001v-0.001v-0.001l0-0.001l0-0.001v-0.001l0-0.001v-0.001l0-0.001v-0.001l0-0.001l0-0.001l0-0.001l0-0.001l0-0.003
						l0-0.001l0.001-0.006l0-0.001l0-0.002l0-0.001l0-0.002l0-0.001c0.06,0.385,0.061,0.825-0.006,1.325
						c-0.523,3.918-6.277,5.631-10.233,9.44l-2.824,2.785c-3.092,2.977-7.177,1.579-6.47-2.829
						C150.946,357.201,154.295,359.408,156.916,356.885"/>
					
						<linearGradient id="SVGID_00000055691356000833991110000016042230282548343197_" gradientUnits="userSpaceOnUse" x1="149.5876" y1="304.8336" x2="170.8445" y2="304.8336">
						<stop  offset="0.0196" style="stop-color:#343B97"/>
						<stop  offset="1" style="stop-color:#5457D4"/>
					</linearGradient>
					<path style="fill-rule:evenodd;clip-rule:evenodd;fill:url(#SVGID_00000055691356000833991110000016042230282548343197_);" d="
						M170.844,296.748c-1.729,15.106-4.358,32.517-8.286,51.981c-0.964,4.756-3.185,6.924-5.468,7.668
						c-3.216,1.058-6.547-0.723-6.631-2.106c-0.828-12.99,2.713-37.828,4.484-51.53c0.597-15.546-8.213-38.038-4.389-43.904
						l19.37-5.908l0.367,17.536L170.844,296.748z"/>
					
						<linearGradient id="SVGID_00000083793604516750742770000003640314276364779452_" gradientUnits="userSpaceOnUse" x1="209.8738" y1="340.1448" x2="160.6376" y2="304.2652">
						<stop  offset="0" style="stop-color:#5457D4"/>
						<stop  offset="1" style="stop-color:#302C8B"/>
					</linearGradient>
					<path style="fill-rule:evenodd;clip-rule:evenodd;fill:url(#SVGID_00000083793604516750742770000003640314276364779452_);" d="
						M170.289,270.485c-0.576,1.603-1.006,2.629-1.006,2.629s-6.725,46.785-8.276,52.672c-1.309,4.976-3.321,24.597-3.918,30.61
						c-3.216,1.058-6.547-0.723-6.631-2.106c-0.828-12.99,2.713-37.828,4.484-51.53c0.597-15.546-8.213-38.038-4.389-43.904
						l19.37-5.908L170.289,270.485z"/>
					
						<linearGradient id="SVGID_00000075883072916474554360000004967734810600887958_" gradientUnits="userSpaceOnUse" x1="207.191" y1="305.1536" x2="142.5686" y2="312.2248">
						<stop  offset="0" style="stop-color:#45ABE2"/>
						<stop  offset="0.4553" style="stop-color:#5457D4"/>
						<stop  offset="1" style="stop-color:#302C8B"/>
					</linearGradient>
					<path style="fill-rule:evenodd;clip-rule:evenodd;fill:url(#SVGID_00000075883072916474554360000004967734810600887958_);" d="
						M186.59,357.77c-0.251,4.494-2.986,5.594-5.877,5.468c-3.405-0.147-7.029-2.011-7.029-2.011
						c-0.042-16.395-1.561-34.822-0.744-49.98c0.754-13.975-10.099-34.832-10.224-52.505c-0.021-0.901,0-1.781,0.052-2.661
						l22.031-3.771c0.461,3.52,0.87,6.872,1.257,10.088C191.974,312.891,188.297,327.568,186.59,357.77z"/>
					
						<linearGradient id="SVGID_00000134945120984531574820000001534455043112037516_" gradientUnits="userSpaceOnUse" x1="230.6246" y1="366.7107" x2="163.2519" y2="293.8383">
						<stop  offset="0" style="stop-color:#5457D4"/>
						<stop  offset="1" style="stop-color:#302C8B"/>
					</linearGradient>
					<path style="fill-rule:evenodd;clip-rule:evenodd;fill:url(#SVGID_00000134945120984531574820000001534455043112037516_);" d="
						M181.697,311.456c0.136,4.4-0.786,43.715-0.985,51.782c-3.405-0.147-7.029-2.011-7.029-2.011
						c-0.042-16.395-1.561-34.822-0.744-49.98c0.754-13.975-10.099-34.832-10.224-52.505l23.34,3.656l-8.716,12.445
						C177.339,274.843,181.53,306.543,181.697,311.456z"/>
					
						<linearGradient id="SVGID_00000165231600660710422410000011830414937010995370_" gradientUnits="userSpaceOnUse" x1="200.4929" y1="229.2238" x2="144.12" y2="233.5451">
						<stop  offset="0" style="stop-color:#45ABE2"/>
						<stop  offset="0.4553" style="stop-color:#5457D4"/>
						<stop  offset="1" style="stop-color:#302C8B"/>
					</linearGradient>
					<path style="fill-rule:evenodd;clip-rule:evenodd;fill:url(#SVGID_00000165231600660710422410000011830414937010995370_);" d="
						M183.237,264.252l-2.483,1.32c-1.77,0.869-3.719,1.666-5.741,2.347c-8.381,2.828-18.144,3.572-22.45-1.959
						c-1.131-0.985-5.248-4.871-5.248-4.871c0.953-6.851,5.28-23.623,5.217-24.251c-0.377-3.876-1.603-7.742-2.671-11.461
						c-1.226-4.285-3.52-8.066-4.693-12.372c-0.786-2.902-1.048-6.023-0.262-8.936c1.655-6.139,6.589-9.701,12.634-9.564
						c3.017,0.063,5.971,0.932,8.768,2.106c2.891,1.226,5.646,2.797,8.15,4.725c2.273,1.749,3.855,3.447,5.06,5.521
						c0.828,1.414,1.498,2.996,2.095,4.903c1.477,4.63,1.32,8.904,1.529,13.66c0.22,4.903-0.21,9.198-0.335,14.153
						c2.598,9.02,5.887,13.325,6.474,18.375C189.481,259.685,187.009,262.063,183.237,264.252z"/>
					
						<linearGradient id="SVGID_00000085973243908420832240000005674733062504181415_" gradientUnits="userSpaceOnUse" x1="145.373" y1="246.1143" x2="175.229" y2="221.9545">
						<stop  offset="0" style="stop-color:#5457D4"/>
						<stop  offset="1" style="stop-color:#302C8B"/>
					</linearGradient>
					<path style="fill-rule:evenodd;clip-rule:evenodd;fill:url(#SVGID_00000085973243908420832240000005674733062504181415_);" d="
						M168.697,247.418l6.317,20.501c-8.381,2.828-18.144,3.572-22.45-1.959c-1.131-0.985-5.248-4.871-5.248-4.871
						c0.953-6.851,5.28-23.623,5.217-24.251c-0.377-3.876-1.603-7.742-2.671-11.461c-1.226-4.285-3.52-8.066-4.693-12.372
						c-0.786-2.902-1.048-6.023-0.262-8.936c1.655-6.139,6.589-9.701,12.634-9.564c3.017,0.063,5.971,0.932,8.768,2.106
						c2.891,1.226,5.646,2.797,8.15,4.725c2.273,1.749,3.855,3.447,5.06,5.521c-2.179,5.175-0.122,12.33-0.122,12.33
						s-10.312,8.003-10.699,13.115C168.299,237.403,168.697,247.418,168.697,247.418z"/>
					
						<linearGradient id="SVGID_00000124859896493166336690000006773464267821652382_" gradientUnits="userSpaceOnUse" x1="156.0941" y1="195.9726" x2="173.6253" y2="195.9726">
						<stop  offset="0" style="stop-color:#FFFFFF"/>
						<stop  offset="1" style="stop-color:#C9DEFF"/>
					</linearGradient>
					<path style="fill-rule:evenodd;clip-rule:evenodd;fill:url(#SVGID_00000124859896493166336690000006773464267821652382_);" d="
						M173.625,200.082c-2.727-1.615-5.719-2.722-8.765-3.565c-0.696-0.193-8.669-2.222-8.766-1.928
						c0.483-1.462,1.507-2.686,3.155-2.724c0.674-0.016,1.337,0.15,1.988,0.326c2.618,0.708,5.186,1.6,7.679,2.667
						C171.25,195.856,172.952,197.574,173.625,200.082z"/>
				</g>
				
					<linearGradient id="SVGID_00000089568103392392400360000011459587189546520202_" gradientUnits="userSpaceOnUse" x1="240.5768" y1="191.9032" x2="173.0076" y2="210.1704">
					<stop  offset="0" style="stop-color:#45C2FF"/>
					<stop  offset="0.5293" style="stop-color:#5457D4"/>
					<stop  offset="1" style="stop-color:#302C8B"/>
				</linearGradient>
				<path style="fill:url(#SVGID_00000089568103392392400360000011459587189546520202_);" d="M222.186,187.213
					c-12.12,31.207-16.101,29.992-16.772,30.715c-0.681,0.723-29.741,1.341-29.804,1.351c-7.522,0.178-12.77-13.524-5.06-16.772
					c3.981-1.676,10.319,0.817,14.488,1.351c4.924,0.649,9.868,1.456,14.834,1.582c7.186-8.758,14.436-22.984,14.436-22.984
					c1.184,0.084,2.221,0.335,3.111,0.691c0.314,0.136,0.492,0.21,0.492,0.21C220.908,184.741,222.186,187.213,222.186,187.213z"/>
				
					<linearGradient id="SVGID_00000170982734956166106230000015499224950240272269_" gradientUnits="userSpaceOnUse" x1="226.7999" y1="190.6242" x2="198.1105" y2="196.4506">
					<stop  offset="0" style="stop-color:#45ABE2"/>
					<stop  offset="0.4553" style="stop-color:#5457D4"/>
					<stop  offset="1" style="stop-color:#302C8B"/>
				</linearGradient>
				<path style="fill:url(#SVGID_00000170982734956166106230000015499224950240272269_);" d="M217.912,183.358l-13.273,22.471
					l-4.766-0.388c7.186-8.758,14.436-22.984,14.436-22.984c1.184,0.084,2.221,0.335,3.111,0.691
					C217.734,183.285,217.912,183.358,217.912,183.358z"/>
			</g>
			
				<linearGradient id="SVGID_00000070089958128773033700000000773423672066628771_" gradientUnits="userSpaceOnUse" x1="180.2053" y1="160.5134" x2="160.1702" y2="182.2507">
				<stop  offset="0" style="stop-color:#5457D4"/>
				<stop  offset="1" style="stop-color:#302C8B"/>
			</linearGradient>
			<path style="fill-rule:evenodd;clip-rule:evenodd;fill:url(#SVGID_00000070089958128773033700000000773423672066628771_);" d="
				M170.227,189.256c-0.01,0.262-0.073,0.524-0.199,0.786c-0.744,1.603-2.315,2.619-4.075,2.734
				c-1.76,0.126-3.488-0.545-5.028-1.435c-3.027-1.749-5.552-4.368-7.186-7.469c-1.037-1.99-2.734-3.991-3.3-6.181
				c-0.65-2.535,1.184-3.635,1.655-5.489c0.189,1.1,0.566,2.169,1.121,3.143c-0.471-1.844,0.042-3.908,1.32-5.322
				c-1.236,2.357,0.314,5.29,2.389,6.956c1.634,1.33,4.745,2.242,5.846,4.044c0.587,0.964,0.817,2.085,1.236,3.122
				C165.062,186.731,167.513,188.627,170.227,189.256z"/>
		</g>
		<g>
			
				<linearGradient id="SVGID_00000005263479807785900560000008785616358795552650_" gradientUnits="userSpaceOnUse" x1="334.3694" y1="64.9253" x2="363.3088" y2="114.8163">
				<stop  offset="0" style="stop-color:#4464CA"/>
				<stop  offset="0.3575" style="stop-color:#45ABE2"/>
				<stop  offset="1" style="stop-color:#433EBD"/>
			</linearGradient>
			<path style="fill-rule:evenodd;clip-rule:evenodd;fill:url(#SVGID_00000005263479807785900560000008785616358795552650_);" d="
				M373.541,97.603c0-12.493-8.826-27.716-19.713-34.002c-5.781-3.338-10.981-3.484-14.587-1.016l0,0l-4.99,2.881v6.832
				c-0.087,0.811-0.136,1.656-0.136,2.543c0,0.868,0.052,1.753,0.136,2.643v0.253l0.021-0.012c0.336,3.315,1.222,6.752,2.55,10.113
				l-0.001-0.001l0.049,0.124c0.038,0.095,0.073,0.19,0.112,0.285l12.923,32.963l-1.066,0.616v12.272l4.99-2.881l16.847-23.516
				c0.038-0.05,0.073-0.104,0.111-0.155l0.05-0.069l-0.001,0C372.552,105.112,373.541,101.776,373.541,97.603z"/>
			
				<linearGradient id="SVGID_00000151528704063914106110000003466419888874923158_" gradientUnits="userSpaceOnUse" x1="272.4164" y1="399.6573" x2="272.4164" y2="352.4756" gradientTransform="matrix(0.866 0.5 0 1.1547 112.9256 -477.4129)">
				<stop  offset="0" style="stop-color:#45ABE2"/>
				<stop  offset="1" style="stop-color:#433EBD"/>
			</linearGradient>
			<path style="fill-rule:evenodd;clip-rule:evenodd;fill:url(#SVGID_00000151528704063914106110000003466419888874923158_);" d="
				M365.845,110.357L365.845,110.357c1.717-2.364,2.706-5.699,2.706-9.873c0-12.493-8.826-27.716-19.713-34.002
				c-10.887-6.286-19.713-1.254-19.713,11.239c0,4.173,0.989,8.65,2.706,12.998l-0.001-0.001l0.049,0.124
				c0.038,0.095,0.073,0.19,0.112,0.285l16.847,42.969l16.847-23.516c0.038-0.05,0.073-0.104,0.111-0.155L365.845,110.357z"/>
			
				<linearGradient id="SVGID_00000080178110983688288690000007255188356925568168_" gradientUnits="userSpaceOnUse" x1="348.8392" y1="105.4726" x2="348.8392" y2="77.0627">
				<stop  offset="0" style="stop-color:#FFFFFF"/>
				<stop  offset="1" style="stop-color:#C9DEFF"/>
			</linearGradient>
			<path style="fill-rule:evenodd;clip-rule:evenodd;fill:url(#SVGID_00000080178110983688288690000007255188356925568168_);" d="
				M359.462,95.23c0,3.132-1.027,5.395-2.724,6.568c-1.938,1.362-4.766,1.299-7.899-0.513c-5.866-3.384-10.622-11.586-10.622-18.312
				c0-4.306,1.938-6.956,4.871-7.427c1.655-0.283,3.635,0.147,5.751,1.372C354.706,80.302,359.462,88.505,359.462,95.23z"/>
			<path style="fill-rule:evenodd;clip-rule:evenodd;fill:#FFFFFF;" d="M359.462,95.23c0,3.132-1.027,5.395-2.724,6.568
				c-1.655,0.272-3.625-0.147-5.741-1.372c-5.866-3.384-10.622-11.586-10.622-18.312c0-3.132,1.027-5.385,2.713-6.568
				c1.655-0.283,3.635,0.147,5.751,1.372C354.706,80.302,359.462,88.505,359.462,95.23z"/>
		</g>
		<g>
			
				<linearGradient id="SVGID_00000143590571483851829380000006640887493397300360_" gradientUnits="userSpaceOnUse" x1="153.6147" y1="111.6656" x2="131.8739" y2="150.473">
				<stop  offset="0" style="stop-color:#45ABE2"/>
				<stop  offset="0.4553" style="stop-color:#5457D4"/>
				<stop  offset="1" style="stop-color:#302C8B"/>
			</linearGradient>
			<path style="fill:url(#SVGID_00000143590571483851829380000006640887493397300360_);" d="M161.411,112.657l-6.502-3.754v0
				c-3.11-1.779-7.41-1.508-12.159,1.234c-9.49,5.479-17.183,18.748-17.183,29.638c0,5.495,1.961,9.331,5.121,11.082l6.305,3.64
				v-2.739c1.8-0.305,3.737-1.02,5.757-2.186c7.702-4.447,14.219-14.025,16.402-23.297l2.259,1.304V112.657z"/>
			<g>
				
					<linearGradient id="SVGID_00000010290509795792891010000003802916347188153755_" gradientUnits="userSpaceOnUse" x1="155.2437" y1="105.1066" x2="139.1554" y2="181.6346">
					<stop  offset="0" style="stop-color:#45ABE2"/>
					<stop  offset="0.4553" style="stop-color:#5457D4"/>
					<stop  offset="1" style="stop-color:#302C8B"/>
				</linearGradient>
				<path style="fill:url(#SVGID_00000010290509795792891010000003802916347188153755_);" d="M166.435,123.688
					c0-10.889-7.693-15.276-17.183-9.797c-9.49,5.479-17.183,18.748-17.183,29.638c0,10.89,7.693,15.276,17.183,9.797
					C158.742,147.846,166.435,134.577,166.435,123.688z"/>
				<path style="fill:#FFFFFF;" d="M160.152,118.354c-0.711-0.405-1.863,0.26-2.575,1.486l-11.874,20.481l-4.707-2.683
					c-0.711-0.406-1.863,0.26-2.574,1.486c-0.711,1.226-0.711,2.549,0,2.954l5.158,2.941c1.173,0.668,3.074-0.43,4.246-2.452
					l12.326-21.26C160.863,120.082,160.863,118.759,160.152,118.354z"/>
			</g>
		</g>
		<g>
			
				<linearGradient id="SVGID_00000103982597528371550970000015867513267604546955_" gradientUnits="userSpaceOnUse" x1="1216.962" y1="323.7281" x2="1177.7919" y2="393.6467" gradientTransform="matrix(-1 0 0 1 1482.4557 0)">
				<stop  offset="0" style="stop-color:#45ABE2"/>
				<stop  offset="0.4553" style="stop-color:#5457D4"/>
				<stop  offset="1" style="stop-color:#302C8B"/>
			</linearGradient>
			<path style="fill:url(#SVGID_00000103982597528371550970000015867513267604546955_);" d="M252.841,324.684l8.9-5.138v0
				c5.606-3.206,13.356-2.719,21.918,2.225c17.106,9.876,30.973,33.794,30.973,53.423c0,9.905-3.534,16.82-9.231,19.976
				l-8.544,4.933v-4.938c-3.245-0.549-6.737-1.838-10.378-3.94c-13.883-8.015-25.631-25.28-29.565-41.995l-4.072,2.351V324.684z"/>
			
				<linearGradient id="SVGID_00000021841282641954216830000011835762747583248831_" gradientUnits="userSpaceOnUse" x1="1218.4972" y1="311.075" x2="1189.4972" y2="449.0205" gradientTransform="matrix(-1 0 0 1 1482.4557 0)">
				<stop  offset="0" style="stop-color:#45ABE2"/>
				<stop  offset="0.4553" style="stop-color:#5457D4"/>
				<stop  offset="1" style="stop-color:#302C8B"/>
			</linearGradient>
			<path style="fill:url(#SVGID_00000021841282641954216830000011835762747583248831_);" d="M243.786,344.568
				c0-19.629,13.867-27.535,30.973-17.659c17.106,9.876,30.973,33.795,30.973,53.423c0,19.629-13.867,27.535-30.973,17.659
				C257.653,388.115,243.786,364.197,243.786,344.568z"/>
			
				<linearGradient id="SVGID_00000075854417514547433420000001603860572640940200_" gradientUnits="userSpaceOnUse" x1="1182.2339" y1="362.4452" x2="1233.1617" y2="362.4452" gradientTransform="matrix(-1 0 0 1 1482.4557 0)">
				<stop  offset="0" style="stop-color:#FFFFFF"/>
				<stop  offset="1" style="stop-color:#C9DEFF"/>
			</linearGradient>
			<path style="fill:url(#SVGID_00000075854417514547433420000001603860572640940200_);" d="M249.294,347.745
				c0,16.145,11.405,35.802,25.473,43.922c7.874,4.551,14.936,4.513,19.601,0.736c3.644-2.946,5.854-8.176,5.854-15.258
				c0-16.126-11.405-35.802-25.454-43.922c-6.798-3.928-12.973-4.438-17.543-2.077C252.353,333.639,249.294,339.399,249.294,347.745
				z"/>
			<path style="fill:#FFFFFF;" d="M251.428,346.348c0,16.145,11.387,35.821,25.454,43.941c6.779,3.909,12.916,4.438,17.486,2.115
				c3.644-2.946,5.854-8.176,5.854-15.258c0-16.126-11.405-35.802-25.454-43.922c-6.798-3.928-12.973-4.438-17.543-2.077
				C253.599,334.092,251.428,339.304,251.428,346.348z"/>
			<g>
				
					<linearGradient id="SVGID_00000124866960007528699490000016165249625876737201_" gradientUnits="userSpaceOnUse" x1="277.4626" y1="343.1198" x2="281.3909" y2="392.0938">
					<stop  offset="0" style="stop-color:#5457D4"/>
					<stop  offset="1" style="stop-color:#302C8B"/>
				</linearGradient>
				<polygon style="fill:url(#SVGID_00000124866960007528699490000016165249625876737201_);" points="278.101,342.058 
					276.136,340.924 276.136,335.613 278.101,336.747 				"/>
				
					<linearGradient id="SVGID_00000010288012950491843510000018145914064184459170_" gradientUnits="userSpaceOnUse" x1="273.9183" y1="343.4045" x2="277.8466" y2="392.3785">
					<stop  offset="0" style="stop-color:#5457D4"/>
					<stop  offset="1" style="stop-color:#302C8B"/>
				</linearGradient>
				<polygon style="fill:url(#SVGID_00000010288012950491843510000018145914064184459170_);" points="278.101,386.529 
					276.136,385.394 276.136,380.083 278.101,381.217 				"/>
				
					<linearGradient id="SVGID_00000011709954964827017170000004857489368831155610_" gradientUnits="userSpaceOnUse" x1="267.5877" y1="343.9123" x2="271.5162" y2="392.8881">
					<stop  offset="0" style="stop-color:#5457D4"/>
					<stop  offset="1" style="stop-color:#302C8B"/>
				</linearGradient>
				<polygon style="fill:url(#SVGID_00000011709954964827017170000004857489368831155610_);" points="267.856,336.184 
					267.005,336.258 265.848,333.289 266.699,333.217 				"/>
				
					<linearGradient id="SVGID_00000109009045566153513300000003907028716362840475_" gradientUnits="userSpaceOnUse" x1="283.7931" y1="342.6108" x2="287.7216" y2="391.5868">
					<stop  offset="0" style="stop-color:#5457D4"/>
					<stop  offset="1" style="stop-color:#302C8B"/>
				</linearGradient>
				<polygon style="fill:url(#SVGID_00000109009045566153513300000003907028716362840475_);" points="288.39,388.852 
					287.539,388.925 286.382,385.957 287.233,385.884 				"/>
				
					<linearGradient id="SVGID_00000086651911787023525620000008720871293275115702_" gradientUnits="userSpaceOnUse" x1="259.7783" y1="344.5384" x2="263.7067" y2="393.5126">
					<stop  offset="0" style="stop-color:#5457D4"/>
					<stop  offset="1" style="stop-color:#302C8B"/>
				</linearGradient>
				<polygon style="fill:url(#SVGID_00000086651911787023525620000008720871293275115702_);" points="260.584,339.919 
					260.092,340.611 258.088,338.126 258.58,337.434 				"/>
				
					<linearGradient id="SVGID_00000006665685721660666030000002429333459672680102_" gradientUnits="userSpaceOnUse" x1="291.6026" y1="341.9857" x2="295.531" y2="390.9601">
					<stop  offset="0" style="stop-color:#5457D4"/>
					<stop  offset="1" style="stop-color:#302C8B"/>
				</linearGradient>
				<polygon style="fill:url(#SVGID_00000006665685721660666030000002429333459672680102_);" points="296.15,384.015 
					295.658,384.708 293.654,382.223 294.146,381.531 				"/>
				
					<linearGradient id="SVGID_00000047034626594521016950000004591787653056805301_" gradientUnits="userSpaceOnUse" x1="257.9003" y1="344.6886" x2="261.8288" y2="393.6642">
					<stop  offset="0" style="stop-color:#5457D4"/>
					<stop  offset="1" style="stop-color:#302C8B"/>
				</linearGradient>
				<polygon style="fill:url(#SVGID_00000047034626594521016950000004591787653056805301_);" points="260.092,361.87 
					260.584,363.129 258.58,363.301 258.088,362.04 				"/>
				
					<linearGradient id="SVGID_00000011711980323374822020000010556008987827867813_" gradientUnits="userSpaceOnUse" x1="293.4805" y1="341.8347" x2="297.409" y2="390.81">
					<stop  offset="0" style="stop-color:#5457D4"/>
					<stop  offset="1" style="stop-color:#302C8B"/>
				</linearGradient>
				<polygon style="fill:url(#SVGID_00000011711980323374822020000010556008987827867813_);" points="295.658,358.841 
					296.15,360.101 294.146,360.272 293.654,359.012 				"/>
				
					<linearGradient id="SVGID_00000167377870429842644960000003321691231633490327_" gradientUnits="userSpaceOnUse" x1="264.3349" y1="344.1731" x2="268.2633" y2="393.1471">
					<stop  offset="0" style="stop-color:#5457D4"/>
					<stop  offset="1" style="stop-color:#302C8B"/>
				</linearGradient>
				<polygon style="fill:url(#SVGID_00000167377870429842644960000003321691231633490327_);" points="267.005,374.206 
					267.856,375.261 266.699,376.892 265.848,375.837 				"/>
				
					<linearGradient id="SVGID_00000052068406064853059450000007988091265914108315_" gradientUnits="userSpaceOnUse" x1="287.0459" y1="342.3512" x2="290.9743" y2="391.3251">
					<stop  offset="0" style="stop-color:#5457D4"/>
					<stop  offset="1" style="stop-color:#302C8B"/>
				</linearGradient>
				<polygon style="fill:url(#SVGID_00000052068406064853059450000007988091265914108315_);" points="287.539,345.249 
					288.39,346.304 287.233,347.936 286.382,346.881 				"/>
				
					<linearGradient id="SVGID_00000125579183078330524830000017162227794806137994_" gradientUnits="userSpaceOnUse" x1="294.0519" y1="341.7891" x2="297.9804" y2="390.7637">
					<stop  offset="0" style="stop-color:#5457D4"/>
					<stop  offset="1" style="stop-color:#302C8B"/>
				</linearGradient>
				<polygon style="fill:url(#SVGID_00000125579183078330524830000017162227794806137994_);" points="294.182,372.049 
					294.182,369.794 298.81,372.467 298.81,374.722 				"/>
				
					<linearGradient id="SVGID_00000042726200447169723870000015358291666884665233_" gradientUnits="userSpaceOnUse" x1="257.3289" y1="344.7349" x2="261.2573" y2="393.7094">
					<stop  offset="0" style="stop-color:#5457D4"/>
					<stop  offset="1" style="stop-color:#302C8B"/>
				</linearGradient>
				<polygon style="fill:url(#SVGID_00000042726200447169723870000015358291666884665233_);" points="255.428,349.675 
					255.428,347.42 260.056,350.092 260.056,352.347 				"/>
				
					<linearGradient id="SVGID_00000122704242784902315510000009025146673064233150_" gradientUnits="userSpaceOnUse" x1="272.2273" y1="343.5399" x2="276.1557" y2="392.5142">
					<stop  offset="0" style="stop-color:#5457D4"/>
					<stop  offset="1" style="stop-color:#302C8B"/>
				</linearGradient>
				<path style="fill:url(#SVGID_00000122704242784902315510000009025146673064233150_);" d="M267.216,349.675L276.549,362
					c0.776,1.025,1.801,0.977,1.801-0.084v-16.155c0-0.78-0.551-1.73-1.231-2.123l0,0c-0.68-0.392-1.231-0.078-1.231,0.702v13.423
					l-7.334-9.686c-0.57-0.753-1.332-1.006-1.702-0.565l0,0C266.482,347.953,266.645,348.921,267.216,349.675z"/>
			</g>
		</g>
	</g>
</g>
</svg>
