<?xml version="1.0" standalone="no"?>
<!DOCTYPE svg PUBLIC "-//W3C//DTD SVG 20010904//EN"
 "http://www.w3.org/TR/2001/REC-SVG-20010904/DTD/svg10.dtd">
<svg version="1.0" xmlns="http://www.w3.org/2000/svg"
 width="426.000000pt" height="101.000000pt" viewBox="0 0 426.000000 101.000000"
 preserveAspectRatio="xMidYMid meet">

<g transform="translate(0.000000,101.000000) scale(0.100000,-0.100000)"
fill="#000000" stroke="none">
<path d="M540 950 c-11 -11 -20 -31 -20 -45 0 -23 3 -25 50 -25 47 0 50 2 50
25 0 25 -31 65 -50 65 -5 0 -19 -9 -30 -20z"/>
<path d="M437 913 c-16 -15 -6 -33 18 -33 18 0 25 5 25 20 0 20 -28 28 -43 13z"/>
<path d="M660 900 c0 -15 7 -20 25 -20 18 0 25 5 25 20 0 15 -7 20 -25 20 -18
0 -25 -5 -25 -20z"/>
<path d="M430 835 l0 -25 140 0 140 0 0 25 0 25 -140 0 -140 0 0 -25z"/>
<path d="M405 770 c-18 -20 -17 -20 170 -20 l188 0 -26 20 c-22 18 -40 20
-170 20 -131 0 -145 -2 -162 -20z"/>
<path d="M301 671 c-105 -109 -165 -241 -178 -388 l-6 -73 45 0 45 0 6 87 c4
49 14 113 23 143 23 79 80 184 132 241 l44 49 -27 0 c-20 0 -42 -15 -84 -59z"/>
<path d="M391 670 c-83 -117 -131 -264 -131 -394 l0 -66 70 0 69 0 5 33 c3 17
7 82 10 142 5 115 21 190 60 287 l24 58 -33 0 c-28 0 -37 -8 -74 -60z"/>
<path d="M526 721 c-3 -5 -18 -55 -32 -112 -20 -80 -27 -138 -31 -251 l-5
-148 111 0 111 0 0 109 c0 118 -18 239 -50 344 l-21 67 -39 0 c-21 0 -41 -4
-44 -9z"/>
<path d="M666 672 c39 -97 55 -172 60 -287 3 -60 7 -125 10 -142 l5 -33 69 0
70 0 0 66 c0 130 -48 277 -131 394 -37 52 -46 60 -74 60 l-33 0 24 -58z"/>
<path d="M772 681 c52 -57 109 -162 132 -241 9 -30 19 -94 23 -143 l6 -87 45
0 45 0 -6 73 c-13 147 -73 279 -178 388 -42 44 -64 59 -84 59 l-27 0 44 -49z"/>
<path d="M1150 465 l0 -265 1525 0 c839 0 1525 3 1525 8 0 4 -460 7 -1022 7
l-1023 0 0 258 0 257 -502 0 -503 0 0 -265z m337 164 c14 -5 20 -14 17 -23 -5
-12 -10 -12 -39 0 -74 30 -145 8 -145 -45 0 -36 22 -54 90 -76 98 -32 138
-101 89 -154 -26 -28 -60 -41 -106 -41 -44 0 -123 36 -123 56 0 18 -2 18 45
-6 55 -28 128 -27 155 2 40 43 16 88 -63 114 -81 26 -104 41 -116 74 -31 89
77 144 196 99z m511 -5 c17 -7 32 -17 32 -22 0 -19 -13 -20 -43 -1 -65 39
-161 15 -204 -50 -45 -67 -24 -160 49 -215 35 -25 115 -27 152 -3 23 15 26 24
26 72 0 42 3 55 15 55 12 0 15 -14 15 -63 0 -58 -2 -64 -28 -79 -69 -41 -162
-35 -218 14 -47 41 -64 77 -64 133 0 139 128 215 268 159z m-358 -160 c0 -136
-3 -175 -12 -172 -10 4 -14 50 -16 176 -2 149 0 172 13 172 13 0 15 -25 15
-176z"/>
<path d="M2855 642 c-32 -11 -51 -25 -64 -49 -29 -57 3 -103 94 -133 77 -25
95 -41 95 -80 0 -58 -84 -79 -161 -40 -38 20 -66 19 -53 -1 13 -21 86 -49 129
-49 79 0 125 36 125 97 0 45 -25 70 -93 92 -85 29 -107 45 -107 82 0 25 6 33
38 46 30 13 45 14 79 4 65 -17 68 -17 68 -1 0 28 -98 48 -150 32z"/>
<path d="M3210 636 c0 -11 15 -16 58 -18 l57 -3 3 -162 c2 -135 5 -163 17
-163 12 0 15 28 17 163 l3 162 58 3 c40 2 57 7 54 15 -2 8 -44 13 -135 15
-111 2 -132 0 -132 -12z"/>
<path d="M3903 636 c-36 -17 -53 -43 -53 -84 0 -38 33 -67 105 -92 32 -11 67
-28 77 -37 27 -24 23 -69 -7 -89 -34 -22 -116 -14 -155 14 -25 19 -29 19 -34
5 -18 -46 136 -83 203 -49 28 15 51 53 51 86 0 32 -47 76 -94 90 -24 6 -58 21
-76 31 -26 16 -31 25 -28 52 5 56 72 70 159 33 11 -5 19 -1 23 9 12 33 -115
56 -171 31z"/>
<path d="M2274 623 c4 -10 35 -88 69 -173 49 -119 68 -156 83 -158 17 -2 30
24 91 173 60 146 69 175 54 175 -13 0 -30 -31 -66 -122 -27 -68 -55 -139 -63
-158 l-14 -35 -62 155 c-44 111 -67 156 -80 158 -14 3 -16 -1 -12 -15z"/>
<path d="M2650 465 c0 -168 1 -175 20 -175 19 0 20 7 20 175 0 168 -1 175 -20
175 -19 0 -20 -7 -20 -175z"/>
<path d="M3110 465 c0 -149 2 -175 15 -175 13 0 15 26 15 175 0 149 -2 175
-15 175 -13 0 -15 -26 -15 -175z"/>
<path d="M3537 471 c-43 -94 -77 -173 -77 -176 0 -3 7 -5 15 -5 9 0 24 20 35
45 l19 45 103 0 103 0 18 -45 c13 -30 25 -45 37 -45 22 0 21 4 -78 220 -81
175 -79 175 -175 -39z m136 47 c21 -46 37 -89 37 -95 0 -9 -23 -13 -80 -13
-44 0 -80 3 -80 7 0 14 75 183 81 183 3 0 22 -37 42 -82z"/>
<path d="M60 165 l0 -25 510 0 510 0 0 25 0 25 -510 0 -510 0 0 -25z"/>
<path d="M100 85 l0 -35 470 0 470 0 0 35 0 35 -470 0 -470 0 0 -35z"/>
</g>
</svg>
