<?xml version="1.0" encoding="UTF-8"?>
<!DOCTYPE svg PUBLIC "-//W3C//DTD SVG 1.1//EN" "http://www.w3.org/Graphics/SVG/1.1/DTD/svg11.dtd">
<!-- Creator: CorelDRAW 2021 (64 Bit) -->
<svg xmlns="http://www.w3.org/2000/svg" xml:space="preserve" width="75px" height="75px" version="1.1" style="shape-rendering:geometricPrecision; text-rendering:geometricPrecision; image-rendering:optimizeQuality; fill-rule:evenodd; clip-rule:evenodd"
viewBox="0 0 75 75"
 xmlns:xlink="http://www.w3.org/1999/xlink"
 xmlns:xodm="http://www.corel.com/coreldraw/odm/2003">
 <defs>
  <style type="text/css">
   <![CDATA[
    .fil0 {fill:none}
    .fil1 {fill:black}
   ]]>
  </style>
 </defs>
 <g id="Camada_x0020_1">
  <metadata id="CorelCorpID_0Corel-Layer"/>
  <g id="_2502925115520">
   <rect class="fil0" width="75" height="75"/>
   <g>
    <path class="fil1" d="M14.5 16.5c-2.81,0.15 -9.52,-0.85 -9.52,6.62l0 31.39c0,8.1 8.38,6.48 15.09,6.48l37.52 -0.01c2.29,-0.01 2.3,0.72 3.52,1.94l8.05 8.06c0.98,0.98 1.58,2.08 3.5,1.63 1.09,-2.18 -0.86,-3.21 -3.75,-6.1 -1.71,-1.71 -3.94,-3.69 -5.37,-5.48 4.33,-0.32 6.63,-2.27 6.63,-6.8l0 -31.11c0,-9.63 -10.8,-5.51 -14.13,-6.8 -0.74,-0.29 -4.51,-4.32 -5.24,-5.04 -1.75,-1.75 -2.96,-3.63 -6.84,-3.63l-12.78 0c-6.17,0 -8.6,7.13 -12.22,8.66 -1.83,-0.92 -13.56,-13.93 -14.92,-14.42 -1.13,-0.41 -1.95,0.2 -1.98,1.23 -0.03,1.25 3.84,4.6 5.15,5.91 1.57,1.56 6.41,6.02 7.29,7.47zm6.68 2.17l7.01 7.13c1.32,-0.68 2.25,-1.6 4.16,-2.35 1.79,-0.7 3.93,-1.07 6.07,-0.95 9.74,0.55 16.5,10.44 13.06,19.81 -0.71,1.94 -1.72,2.99 -2.43,4.36l10.13 10.13c1,1.03 0.87,1.25 2.82,1.25 2.83,0 4.95,0.08 5.2,-3.01l-0.01 -32.71c-0.51,-5.15 -8.75,-1.43 -12.81,-3.52 -1.16,-0.6 -3.27,-3.02 -4.15,-3.9 -0.95,-0.95 -3.28,-3.54 -4.35,-3.99 -1.07,-0.46 -14.42,-0.55 -16,-0.2 -1.64,0.35 -7.22,6.42 -8.7,7.95zm-13.24 4.45l0 31.39c0,2.65 1.21,3.52 3.79,3.52l44.33 -0.03c-1.35,-1.74 -7.02,-7.02 -9.1,-9.24 -2.79,1.43 -4.7,3.63 -10.23,3.31 -9.73,-0.55 -16.51,-10.42 -13.07,-19.81 0.72,-1.95 1.73,-2.98 2.43,-4.36l-6.65 -6.65c-2.3,-2.31 -1.49,-1.75 -7.71,-1.75 -2.61,0 -3.79,0.97 -3.79,3.62zm22.48 4.77l16.48 16.61c7.81,-11.6 -4.9,-24.36 -16.48,-16.61zm14.3 18.79l-16.47 -16.61c-7.81,11.65 4.88,24.31 16.47,16.61z"/>
    <path class="fil1" d="M60.14 22.8c-3.78,1.92 -1.1,6.83 2.4,5.3 3.45,-1.51 1.04,-7.06 -2.4,-5.3z"/>
   </g>
  </g>
 </g>
</svg>
