<?xml version="1.0" encoding="utf-8"?>
<!-- Generator: Adobe Illustrator 27.4.0, SVG Export Plug-In . SVG Version: 6.00 Build 0)  -->
<svg version="1.1" id="Layer_1" xmlns:xodm="http://www.corel.com/coreldraw/odm/2003"
	 xmlns="http://www.w3.org/2000/svg" xmlns:xlink="http://www.w3.org/1999/xlink" x="0px" y="0px" viewBox="0 0 75 75"
	 style="enable-background:new 0 0 75 75;" xml:space="preserve">
<style type="text/css">
	.st0{fill:#E3E5EF;}
	.st1{fill:#EAECF3;}
	.st2{fill:none;}
	.st3{fill-rule:evenodd;clip-rule:evenodd;fill:#9AA2C6;}
	.st4{fill:#9AA2C6;}
	.st5{font-family:'Lato-Black';}
	.st6{font-size:12px;}
</style>
<rect x="0" y="0" class="st0" width="75" height="75"/>
<g>
	<path class="st1" d="M54.8,57H20.2c-6.6,0-12-5.4-12-12V15.6c0-6.6,5.4-12,12-12h34.6c6.6,0,12,5.4,12,12V45
		C66.8,51.6,61.4,57,54.8,57z"/>
	<g id="Camada_x0020_1">
		<g id="_2502925115520">
			<rect x="13.1" y="6.4" class="st2" width="47.9" height="47.9"/>
			<g>
				<path class="st3" d="M22.3,16.9c-1.8,0.1-6.1-0.5-6.1,4.2v20c0,5.2,5.3,4.1,9.6,4.1l23.9,0c1.5,0,1.5,0.5,2.2,1.2l5.1,5.1
					c0.6,0.6,1,1.3,2.2,1c0.7-1.4-0.5-2-2.4-3.9c-1.1-1.1-2.5-2.4-3.4-3.5c2.8-0.2,4.2-1.4,4.2-4.3V21.1c0-6.1-6.9-3.5-9-4.3
					c-0.5-0.2-2.9-2.8-3.3-3.2c-1.1-1.1-1.9-2.3-4.4-2.3H33c-3.9,0-5.5,4.6-7.8,5.5c-1.2-0.6-8.7-8.9-9.5-9.2
					c-0.7-0.3-1.2,0.1-1.3,0.8c0,0.8,2.5,2.9,3.3,3.8C18.7,13.1,21.8,16,22.3,16.9z M26.6,18.3l4.5,4.6c0.8-0.4,1.4-1,2.7-1.5
					c1.1-0.4,2.5-0.7,3.9-0.6c6.2,0.4,10.5,6.7,8.3,12.6c-0.5,1.2-1.1,1.9-1.6,2.8l6.5,6.5c0.6,0.7,0.6,0.8,1.8,0.8
					c1.8,0,3.2,0.1,3.3-1.9l0-20.9c-0.3-3.3-5.6-0.9-8.2-2.2c-0.7-0.4-2.1-1.9-2.6-2.5c-0.6-0.6-2.1-2.3-2.8-2.5
					c-0.7-0.3-9.2-0.4-10.2-0.1C31.1,13.4,27.5,17.3,26.6,18.3z M18.1,21.1v20c0,1.7,0.8,2.2,2.4,2.2l28.3,0
					c-0.9-1.1-4.5-4.5-5.8-5.9c-1.8,0.9-3,2.3-6.5,2.1C30.3,39.3,26,33,28.2,27c0.5-1.2,1.1-1.9,1.6-2.8l-4.2-4.2
					c-1.5-1.5-1-1.1-4.9-1.1C18.9,18.8,18.1,19.4,18.1,21.1z M32.5,24.2L43,34.8C48,27.4,39.9,19.2,32.5,24.2z M41.6,36.2L31.1,25.6
					C26.1,33,34.2,41.1,41.6,36.2z"/>
				<path class="st3" d="M51.5,20.9c-2.4,1.2-0.7,4.4,1.5,3.4C55.2,23.4,53.7,19.8,51.5,20.9z"/>
			</g>
		</g>
	</g>
</g>
<text transform="matrix(1 0 0 1 7.8904 70.1465)" class="st4 st5 st6">SEM FOTO</text>
</svg>
